# xmcd CD database file
#
# Track frame offsets:
#	150
#	7294
#	15919
#	28876
#	40572
#	48198
#	61956
#	74960
#	87865
#	102288
#	115470
#	126890
#	139365
#	151694
#	164317
#	174213
#	187642
#	198957
#	206848
#	216701
#
# Disc length: 3056 seconds
#
# Revision: 0
# Processed by: cddbd v1.5.2PL0 Copyright (c) Steve Scherf et al.
# Submitted via: CDex 1.70beta2
#
DISCID=1a0bee14
DTITLE=Dean Martin - Memory Lane
DYEAR=2002
DGENRE=Jazz
TTITLE0=Hot Time In Berlin
TTITLE1=I Don't Care If The Sun Don't Shine
TTITLE2=I Got The Sun In The Morning
TTITLE3=I Still Get A Thrill
TTITLE4=I Wonder Who Kisses Her Now
TTITLE5=If I Knew Then
TTITLE6=If You Were The Only Girl In The World
TTITLE7=I'll String Along With You
TTITLE8=I'm Gonna Paper All Your Walls With Your Love Letters
TTITLE9=I'm In Love With You
TTITLE10=Johnny Get Your Girl
TTITLE11=Just For Fun
TTITLE12=Louise
TTITLE13=Memory Lane
TTITLE14=My Lady Loves To Dance
TTITLE15=My One My Only My All
TTITLE16=Oh Marie
TTITLE17=On A Slow Boat To China
TTITLE18=Once In Love With Amy
TTITLE19=One Foot In Heaven
EXTD=YEAR: 2002
EXTT0=
EXTT1=
EXTT2=
EXTT3=
EXTT4=
EXTT5=
EXTT6=
EXTT7=
EXTT8=
EXTT9=
EXTT10=
EXTT11=
EXTT12=
EXTT13=
EXTT14=
EXTT15=
EXTT16=
EXTT17=
EXTT18=
EXTT19=
PLAYORDER=
